# xmcd
#
# Track frame offsets:
#   150
#   16760
#   33020
#   48958
#   65936
#   81662
#   98661
#   114187
#   128001
#   145030
#   163480
#   180642
#   198431
#   213592
#
# Disc length: 3938 seconds
#
# Revision: 0
# Processed by: cddbd v1.5.2PL0 Copyright (c) Steve Scherf et al.
# Submitted via: GXTranscoder 2.0.1939
#
DISCID=c00f600e
DTITLE=Natasha Bedingfield - N.B.
DYEAR=1900
DGENRE=Easy Listening
TTITLE0=How Do ou Do?
TTITLE1=I wanna have your babies
TTITLE2=Soulmate
TTITLE3=Who knows
TTITLE4=Say it again
TTITLE5=Pirate Bones
TTITLE6=Backyard
TTITLE7=Tricky Angel
TTITLE8=When You know you know
TTITLE9=I Think They´re Thinking 
TTITLE10=(no more) what ifs feat. eve
TTITLE11=Not givin´ up
TTITLE12=Still givin´ up
TTITLE13=Smell the roses
EXTD=
EXTT0=
EXTT1=
EXTT2=
EXTT3=
EXTT4=
EXTT5=
EXTT6=
EXTT7=
EXTT8=
EXTT9=
EXTT10=
EXTT11=
EXTT12=
EXTT13=
PLAYORDER=
